<mxfile host="app.diagrams.net" agent="Mozilla/5.0 (Windows NT 10.0; Win64; x64) AppleWebKit/537.36 (KHTML, like Gecko) Chrome/139.0.0.0 Safari/537.36 Edg/139.0.0.0" version="28.1.0">
  <diagram name="Page-1" id="MrPPxbSwM024YtDuKW-O">
    <mxGraphModel dx="3399" dy="1163" grid="1" gridSize="10" guides="1" tooltips="1" connect="1" arrows="1" fold="1" page="1" pageScale="1" pageWidth="850" pageHeight="1100" math="0" shadow="0">
      <root>
        <mxCell id="0" />
        <mxCell id="1" parent="0" />
        <mxCell id="lYi7P_-lSk1RdSf29L5r-41" value="&lt;p style=&quot;margin:0px;margin-top:4px;text-align:center;&quot;&gt;&lt;b&gt;User&lt;/b&gt;&lt;/p&gt;&lt;hr size=&quot;1&quot; style=&quot;border-style:solid;&quot;&gt;&lt;p style=&quot;margin:0px;margin-left:4px;&quot;&gt;- userID: int&lt;/p&gt;&lt;p style=&quot;margin:0px;margin-left:4px;&quot;&gt;- fullName: string&lt;/p&gt;&lt;p style=&quot;margin:0px;margin-left:4px;&quot;&gt;- email: string&lt;/p&gt;&lt;p style=&quot;margin:0px;margin-left:4px;&quot;&gt;- accountStatus: string&lt;/p&gt;&lt;hr size=&quot;1&quot; style=&quot;border-style:solid;&quot;&gt;&lt;p style=&quot;margin:0px;margin-left:4px;&quot;&gt;+ login(credentials)&lt;/p&gt;&lt;p style=&quot;margin:0px;margin-left:4px;&quot;&gt;+ updateAccountDetails(newDetails)&lt;/p&gt;&lt;p style=&quot;margin:0px;margin-left:4px;&quot;&gt;&lt;br&gt;&lt;/p&gt;" style="verticalAlign=top;align=left;overflow=fill;html=1;whiteSpace=wrap;" parent="1" vertex="1">
          <mxGeometry x="110" y="170" width="200" height="160" as="geometry" />
        </mxCell>
        <mxCell id="lYi7P_-lSk1RdSf29L5r-52" style="edgeStyle=orthogonalEdgeStyle;rounded=0;orthogonalLoop=1;jettySize=auto;html=1;entryX=0.5;entryY=1;entryDx=0;entryDy=0;endSize=10;endArrow=block;endFill=0;" parent="1" source="lYi7P_-lSk1RdSf29L5r-42" target="lYi7P_-lSk1RdSf29L5r-41" edge="1">
          <mxGeometry relative="1" as="geometry" />
        </mxCell>
        <mxCell id="lYi7P_-lSk1RdSf29L5r-42" value="&lt;p style=&quot;margin:0px;margin-top:4px;text-align:center;&quot;&gt;&lt;b&gt;Admin&lt;/b&gt;&lt;/p&gt;&lt;hr size=&quot;1&quot; style=&quot;border-style:solid;&quot;&gt;&lt;p style=&quot;margin:0px;margin-left:4px;&quot;&gt;&lt;br&gt;&lt;/p&gt;&lt;hr size=&quot;1&quot; style=&quot;border-style:solid;&quot;&gt;&lt;p style=&quot;margin:0px;margin-left:4px;&quot;&gt;+ postAnnouncement(announcementData)&lt;/p&gt;&lt;p style=&quot;margin:0px;margin-left:4px;&quot;&gt;+ approveResident(residentID)&lt;/p&gt;&lt;p style=&quot;margin:0px;margin-left:4px;&quot;&gt;+ removeResident(residentID)&lt;/p&gt;" style="verticalAlign=top;align=left;overflow=fill;html=1;whiteSpace=wrap;" parent="1" vertex="1">
          <mxGeometry x="-110" y="440" width="250" height="120" as="geometry" />
        </mxCell>
        <mxCell id="lYi7P_-lSk1RdSf29L5r-50" style="edgeStyle=orthogonalEdgeStyle;rounded=0;orthogonalLoop=1;jettySize=auto;html=1;entryX=0.5;entryY=1;entryDx=0;entryDy=0;endSize=10;endArrow=block;endFill=0;" parent="1" source="lYi7P_-lSk1RdSf29L5r-43" target="lYi7P_-lSk1RdSf29L5r-41" edge="1">
          <mxGeometry relative="1" as="geometry" />
        </mxCell>
        <mxCell id="lYi7P_-lSk1RdSf29L5r-43" value="&lt;p style=&quot;margin:0px;margin-top:4px;text-align:center;&quot;&gt;&lt;b&gt;Resident&lt;/b&gt;&lt;/p&gt;&lt;hr size=&quot;1&quot; style=&quot;border-style:solid;&quot;&gt;&lt;p style=&quot;margin:0px;margin-left:4px;&quot;&gt;- skills: string&lt;/p&gt;&lt;p style=&quot;margin:0px;margin-left:4px;&quot;&gt;- averageRating: int&lt;/p&gt;&lt;p style=&quot;margin:0px;margin-left:4px;&quot;&gt;- reviewCount: int&lt;/p&gt;&lt;hr size=&quot;1&quot; style=&quot;border-style:solid;&quot;&gt;&lt;p style=&quot;margin:0px;margin-left:4px;&quot;&gt;+ createListing(listingData)&lt;/p&gt;&lt;p style=&quot;margin:0px;margin-left:4px;&quot;&gt;&lt;br&gt;&lt;/p&gt;" style="verticalAlign=top;align=left;overflow=fill;html=1;whiteSpace=wrap;" parent="1" vertex="1">
          <mxGeometry x="275" y="440" width="230" height="130" as="geometry" />
        </mxCell>
        <mxCell id="lYi7P_-lSk1RdSf29L5r-44" value="&lt;p style=&quot;margin:0px;margin-top:4px;text-align:center;&quot;&gt;&lt;b&gt;Profile&lt;/b&gt;&lt;/p&gt;&lt;hr size=&quot;1&quot; style=&quot;border-style:solid;&quot;&gt;&lt;p style=&quot;margin:0px;margin-left:4px;&quot;&gt;- profileID&lt;/p&gt;&lt;p style=&quot;margin:0px;margin-left:4px;&quot;&gt;- bio&lt;/p&gt;&lt;hr size=&quot;1&quot; style=&quot;border-style:solid;&quot;&gt;&lt;p style=&quot;margin:0px;margin-left:4px;&quot;&gt;+ updateProfile(userID)&lt;/p&gt;&lt;p style=&quot;margin:0px;margin-left:4px;&quot;&gt;+ viewProfile(userID)&lt;/p&gt;" style="verticalAlign=top;align=left;overflow=fill;html=1;whiteSpace=wrap;" parent="1" vertex="1">
          <mxGeometry x="700" y="170" width="160" height="140" as="geometry" />
        </mxCell>
        <mxCell id="lYi7P_-lSk1RdSf29L5r-45" value="&lt;p style=&quot;margin:0px;margin-top:4px;text-align:center;&quot;&gt;&lt;b&gt;Listing&lt;/b&gt;&lt;/p&gt;&lt;hr size=&quot;1&quot; style=&quot;border-style:solid;&quot;&gt;&lt;p style=&quot;margin:0px;margin-left:4px;&quot;&gt;- listingID&lt;/p&gt;&lt;p style=&quot;margin:0px;margin-left:4px;&quot;&gt;- description&lt;/p&gt;&lt;p style=&quot;margin:0px;margin-left:4px;&quot;&gt;- type&lt;/p&gt;&lt;p style=&quot;margin:0px;margin-left:4px;&quot;&gt;- status&lt;/p&gt;&lt;p style=&quot;margin:0px;margin-left:4px;&quot;&gt;- type&lt;/p&gt;&lt;p style=&quot;margin:0px;margin-left:4px;&quot;&gt;- category&lt;/p&gt;&lt;p style=&quot;margin:0px;margin-left:4px;&quot;&gt;- datePosted&amp;nbsp;&lt;/p&gt;&lt;p style=&quot;margin:0px;margin-left:4px;&quot;&gt;- expiryDate&lt;/p&gt;&lt;hr size=&quot;1&quot; style=&quot;border-style:solid;&quot;&gt;&lt;p style=&quot;margin:0px;margin-left:4px;&quot;&gt;+ editListing(listingID, newData)&lt;/p&gt;" style="verticalAlign=top;align=left;overflow=fill;html=1;whiteSpace=wrap;" parent="1" vertex="1">
          <mxGeometry x="685" y="400" width="190" height="180" as="geometry" />
        </mxCell>
        <mxCell id="lYi7P_-lSk1RdSf29L5r-55" style="edgeStyle=orthogonalEdgeStyle;rounded=0;orthogonalLoop=1;jettySize=auto;html=1;endArrow=none;endFill=0;" parent="1" source="lYi7P_-lSk1RdSf29L5r-46" target="lYi7P_-lSk1RdSf29L5r-45" edge="1">
          <mxGeometry relative="1" as="geometry" />
        </mxCell>
        <mxCell id="lYi7P_-lSk1RdSf29L5r-46" value="&lt;p style=&quot;margin:0px;margin-top:4px;text-align:center;&quot;&gt;&lt;b&gt;Transaction&lt;/b&gt;&lt;/p&gt;&lt;hr size=&quot;1&quot; style=&quot;border-style:solid;&quot;&gt;&lt;p style=&quot;margin:0px;margin-left:4px;&quot;&gt;- transactionID&lt;/p&gt;&lt;p style=&quot;margin:0px;margin-left:4px;&quot;&gt;- listingID&lt;/p&gt;&lt;p style=&quot;margin:0px;margin-left:4px;&quot;&gt;- buyerID&lt;/p&gt;&lt;p style=&quot;margin:0px;margin-left:4px;&quot;&gt;- sellerID&lt;/p&gt;&lt;p style=&quot;margin:0px;margin-left:4px;&quot;&gt;- transactionType&lt;/p&gt;&lt;p style=&quot;margin:0px;margin-left:4px;&quot;&gt;- transactionDate&lt;/p&gt;&lt;p style=&quot;margin:0px;margin-left:4px;&quot;&gt;- completionStatus&lt;/p&gt;&lt;hr size=&quot;1&quot; style=&quot;border-style:solid;&quot;&gt;&lt;p style=&quot;margin:0px;margin-left:4px;&quot;&gt;+ initiateTransaction(listingID, buyerID)&lt;/p&gt;&lt;p style=&quot;margin:0px;margin-left:4px;&quot;&gt;+ confirmCompletion(transactionID)&lt;/p&gt;&lt;p style=&quot;margin:0px;margin-left:4px;&quot;&gt;+ cancelTransaction(transactionID)&lt;/p&gt;" style="verticalAlign=top;align=left;overflow=fill;html=1;whiteSpace=wrap;" parent="1" vertex="1">
          <mxGeometry x="670" y="670" width="220" height="210" as="geometry" />
        </mxCell>
        <mxCell id="lYi7P_-lSk1RdSf29L5r-47" value="&lt;p style=&quot;margin:0px;margin-top:4px;text-align:center;&quot;&gt;&lt;b&gt;Review&lt;/b&gt;&lt;/p&gt;&lt;hr size=&quot;1&quot; style=&quot;border-style:solid;&quot;&gt;&lt;p style=&quot;margin:0px;margin-left:4px;&quot;&gt;- reviewID&lt;/p&gt;&lt;p style=&quot;margin:0px;margin-left:4px;&quot;&gt;- transactionID&lt;/p&gt;&lt;p style=&quot;margin:0px;margin-left:4px;&quot;&gt;- reviewerID&lt;/p&gt;&lt;p style=&quot;margin:0px;margin-left:4px;&quot;&gt;- revieweeID&lt;/p&gt;&lt;p style=&quot;margin:0px;margin-left:4px;&quot;&gt;- rating&lt;/p&gt;&lt;p style=&quot;margin:0px;margin-left:4px;&quot;&gt;- comment&lt;/p&gt;&lt;p style=&quot;margin:0px;margin-left:4px;&quot;&gt;- datePosted&lt;/p&gt;&lt;hr size=&quot;1&quot; style=&quot;border-style:solid;&quot;&gt;&lt;p style=&quot;margin:0px;margin-left:4px;&quot;&gt;+ createReview():&lt;/p&gt;&lt;p style=&quot;margin:0px;margin-left:4px;&quot;&gt;+ editReview():&lt;/p&gt;&lt;p style=&quot;margin:0px;margin-left:4px;&quot;&gt;+ removeReview():&lt;/p&gt;" style="verticalAlign=top;align=left;overflow=fill;html=1;whiteSpace=wrap;" parent="1" vertex="1">
          <mxGeometry x="70" y="700" width="190" height="190" as="geometry" />
        </mxCell>
        <mxCell id="lYi7P_-lSk1RdSf29L5r-49" value="&lt;p style=&quot;margin:0px;margin-top:4px;text-align:center;&quot;&gt;&lt;b&gt;Payment&lt;/b&gt;&lt;/p&gt;&lt;hr size=&quot;1&quot; style=&quot;border-style:solid;&quot;&gt;&lt;p style=&quot;margin:0px;margin-left:4px;&quot;&gt;- paymentID&lt;/p&gt;&lt;p style=&quot;margin:0px;margin-left:4px;&quot;&gt;- transactionID&lt;/p&gt;&lt;p style=&quot;margin:0px;margin-left:4px;&quot;&gt;- amount&lt;/p&gt;&lt;p style=&quot;margin:0px;margin-left:4px;&quot;&gt;- dateInitiated&lt;/p&gt;&lt;p style=&quot;margin:0px;margin-left:4px;&quot;&gt;- dateCompleted&lt;/p&gt;&lt;p style=&quot;margin:0px;margin-left:4px;&quot;&gt;- referenceNumber&lt;/p&gt;&lt;hr size=&quot;1&quot; style=&quot;border-style:solid;&quot;&gt;&lt;p style=&quot;margin:0px;margin-left:4px;&quot;&gt;+ processPayment()&lt;/p&gt;&lt;p style=&quot;margin:0px;margin-left:4px;&quot;&gt;+ confirmPayment()&lt;/p&gt;" style="verticalAlign=top;align=left;overflow=fill;html=1;whiteSpace=wrap;" parent="1" vertex="1">
          <mxGeometry x="1045" y="680" width="230" height="170" as="geometry" />
        </mxCell>
        <mxCell id="lYi7P_-lSk1RdSf29L5r-53" style="edgeStyle=orthogonalEdgeStyle;rounded=0;orthogonalLoop=1;jettySize=auto;html=1;exitX=1;exitY=0.25;exitDx=0;exitDy=0;entryX=0.063;entryY=0.286;entryDx=0;entryDy=0;entryPerimeter=0;endArrow=none;endFill=0;" parent="1" source="lYi7P_-lSk1RdSf29L5r-41" target="lYi7P_-lSk1RdSf29L5r-44" edge="1">
          <mxGeometry relative="1" as="geometry" />
        </mxCell>
        <mxCell id="lYi7P_-lSk1RdSf29L5r-57" style="edgeStyle=orthogonalEdgeStyle;rounded=0;orthogonalLoop=1;jettySize=auto;html=1;entryX=0.022;entryY=0.559;entryDx=0;entryDy=0;entryPerimeter=0;endArrow=none;endFill=0;" parent="1" source="lYi7P_-lSk1RdSf29L5r-46" target="lYi7P_-lSk1RdSf29L5r-49" edge="1">
          <mxGeometry relative="1" as="geometry" />
        </mxCell>
        <mxCell id="OeGCY2YGzfDxdRpGvhzc-1" value="1" style="text;html=1;align=center;verticalAlign=middle;resizable=0;points=[];autosize=1;strokeColor=none;fillColor=none;" vertex="1" parent="1">
          <mxGeometry x="315" y="178" width="30" height="30" as="geometry" />
        </mxCell>
        <mxCell id="OeGCY2YGzfDxdRpGvhzc-2" value="1" style="text;html=1;align=center;verticalAlign=middle;resizable=0;points=[];autosize=1;strokeColor=none;fillColor=none;" vertex="1" parent="1">
          <mxGeometry x="675" y="208" width="30" height="30" as="geometry" />
        </mxCell>
        <mxCell id="OeGCY2YGzfDxdRpGvhzc-4" style="edgeStyle=orthogonalEdgeStyle;rounded=0;orthogonalLoop=1;jettySize=auto;html=1;" edge="1" parent="1" source="OeGCY2YGzfDxdRpGvhzc-3">
          <mxGeometry relative="1" as="geometry">
            <mxPoint x="510" y="183" as="targetPoint" />
          </mxGeometry>
        </mxCell>
        <mxCell id="OeGCY2YGzfDxdRpGvhzc-3" value="has" style="text;html=1;align=center;verticalAlign=middle;resizable=0;points=[];autosize=1;strokeColor=none;fillColor=none;" vertex="1" parent="1">
          <mxGeometry x="430" y="168" width="40" height="30" as="geometry" />
        </mxCell>
        <mxCell id="OeGCY2YGzfDxdRpGvhzc-6" style="edgeStyle=orthogonalEdgeStyle;rounded=0;orthogonalLoop=1;jettySize=auto;html=1;" edge="1" parent="1" source="OeGCY2YGzfDxdRpGvhzc-5">
          <mxGeometry relative="1" as="geometry">
            <mxPoint x="410" y="233" as="targetPoint" />
          </mxGeometry>
        </mxCell>
        <mxCell id="OeGCY2YGzfDxdRpGvhzc-5" value="belongs" style="text;html=1;align=center;verticalAlign=middle;resizable=0;points=[];autosize=1;strokeColor=none;fillColor=none;" vertex="1" parent="1">
          <mxGeometry x="435" y="218" width="70" height="30" as="geometry" />
        </mxCell>
        <mxCell id="OeGCY2YGzfDxdRpGvhzc-8" style="edgeStyle=orthogonalEdgeStyle;rounded=0;orthogonalLoop=1;jettySize=auto;html=1;entryX=0.011;entryY=0.569;entryDx=0;entryDy=0;entryPerimeter=0;endArrow=none;endFill=0;" edge="1" parent="1" source="lYi7P_-lSk1RdSf29L5r-43" target="lYi7P_-lSk1RdSf29L5r-45">
          <mxGeometry relative="1" as="geometry">
            <Array as="points">
              <mxPoint x="687" y="505" />
            </Array>
          </mxGeometry>
        </mxCell>
        <mxCell id="OeGCY2YGzfDxdRpGvhzc-9" value="1...*" style="text;html=1;align=center;verticalAlign=middle;resizable=0;points=[];autosize=1;strokeColor=none;fillColor=none;" vertex="1" parent="1">
          <mxGeometry x="505" y="475" width="40" height="30" as="geometry" />
        </mxCell>
        <mxCell id="OeGCY2YGzfDxdRpGvhzc-10" value="1...*" style="text;html=1;align=center;verticalAlign=middle;resizable=0;points=[];autosize=1;strokeColor=none;fillColor=none;" vertex="1" parent="1">
          <mxGeometry x="645" y="475" width="40" height="30" as="geometry" />
        </mxCell>
        <mxCell id="OeGCY2YGzfDxdRpGvhzc-12" style="edgeStyle=orthogonalEdgeStyle;rounded=0;orthogonalLoop=1;jettySize=auto;html=1;" edge="1" parent="1" source="OeGCY2YGzfDxdRpGvhzc-11">
          <mxGeometry relative="1" as="geometry">
            <mxPoint x="640" y="485" as="targetPoint" />
          </mxGeometry>
        </mxCell>
        <mxCell id="OeGCY2YGzfDxdRpGvhzc-11" value="creates" style="text;html=1;align=center;verticalAlign=middle;resizable=0;points=[];autosize=1;strokeColor=none;fillColor=none;" vertex="1" parent="1">
          <mxGeometry x="545" y="470" width="60" height="30" as="geometry" />
        </mxCell>
        <mxCell id="OeGCY2YGzfDxdRpGvhzc-13" value="1" style="text;html=1;align=center;verticalAlign=middle;resizable=0;points=[];autosize=1;strokeColor=none;fillColor=none;" vertex="1" parent="1">
          <mxGeometry x="785" y="578" width="30" height="30" as="geometry" />
        </mxCell>
        <mxCell id="OeGCY2YGzfDxdRpGvhzc-14" value="1" style="text;html=1;align=center;verticalAlign=middle;resizable=0;points=[];autosize=1;strokeColor=none;fillColor=none;" vertex="1" parent="1">
          <mxGeometry x="785" y="648" width="30" height="30" as="geometry" />
        </mxCell>
        <mxCell id="OeGCY2YGzfDxdRpGvhzc-16" style="edgeStyle=orthogonalEdgeStyle;rounded=0;orthogonalLoop=1;jettySize=auto;html=1;" edge="1" parent="1" source="OeGCY2YGzfDxdRpGvhzc-15">
          <mxGeometry relative="1" as="geometry">
            <mxPoint x="840" y="610.0000000000001" as="targetPoint" />
          </mxGeometry>
        </mxCell>
        <mxCell id="OeGCY2YGzfDxdRpGvhzc-15" value="involves" style="text;html=1;align=center;verticalAlign=middle;resizable=0;points=[];autosize=1;strokeColor=none;fillColor=none;" vertex="1" parent="1">
          <mxGeometry x="805" y="630" width="70" height="30" as="geometry" />
        </mxCell>
        <mxCell id="OeGCY2YGzfDxdRpGvhzc-17" value="1" style="text;html=1;align=center;verticalAlign=middle;resizable=0;points=[];autosize=1;strokeColor=none;fillColor=none;" vertex="1" parent="1">
          <mxGeometry x="890" y="750" width="30" height="30" as="geometry" />
        </mxCell>
        <mxCell id="OeGCY2YGzfDxdRpGvhzc-18" value="1...*" style="text;html=1;align=center;verticalAlign=middle;resizable=0;points=[];autosize=1;strokeColor=none;fillColor=none;" vertex="1" parent="1">
          <mxGeometry x="1005" y="750" width="40" height="30" as="geometry" />
        </mxCell>
        <mxCell id="OeGCY2YGzfDxdRpGvhzc-19" style="edgeStyle=orthogonalEdgeStyle;rounded=0;orthogonalLoop=1;jettySize=auto;html=1;entryX=0.019;entryY=0.597;entryDx=0;entryDy=0;entryPerimeter=0;endArrow=none;endFill=0;" edge="1" parent="1" source="lYi7P_-lSk1RdSf29L5r-47" target="lYi7P_-lSk1RdSf29L5r-46">
          <mxGeometry relative="1" as="geometry" />
        </mxCell>
        <mxCell id="OeGCY2YGzfDxdRpGvhzc-20" value="1" style="text;html=1;align=center;verticalAlign=middle;resizable=0;points=[];autosize=1;strokeColor=none;fillColor=none;" vertex="1" parent="1">
          <mxGeometry x="255" y="768" width="30" height="30" as="geometry" />
        </mxCell>
        <mxCell id="OeGCY2YGzfDxdRpGvhzc-21" value="1" style="text;html=1;align=center;verticalAlign=middle;resizable=0;points=[];autosize=1;strokeColor=none;fillColor=none;" vertex="1" parent="1">
          <mxGeometry x="635" y="768" width="30" height="30" as="geometry" />
        </mxCell>
        <mxCell id="OeGCY2YGzfDxdRpGvhzc-22" style="edgeStyle=orthogonalEdgeStyle;rounded=0;orthogonalLoop=1;jettySize=auto;html=1;entryX=0.133;entryY=1.018;entryDx=0;entryDy=0;entryPerimeter=0;exitX=0.5;exitY=1;exitDx=0;exitDy=0;endArrow=none;endFill=0;" edge="1" parent="1" source="lYi7P_-lSk1RdSf29L5r-43" target="lYi7P_-lSk1RdSf29L5r-49">
          <mxGeometry relative="1" as="geometry">
            <Array as="points">
              <mxPoint x="390" y="950" />
              <mxPoint x="1076" y="950" />
            </Array>
          </mxGeometry>
        </mxCell>
        <mxCell id="OeGCY2YGzfDxdRpGvhzc-23" value="1" style="text;html=1;align=center;verticalAlign=middle;resizable=0;points=[];autosize=1;strokeColor=none;fillColor=none;" vertex="1" parent="1">
          <mxGeometry x="385" y="568" width="30" height="30" as="geometry" />
        </mxCell>
        <mxCell id="OeGCY2YGzfDxdRpGvhzc-25" style="edgeStyle=orthogonalEdgeStyle;rounded=0;orthogonalLoop=1;jettySize=auto;html=1;" edge="1" parent="1" source="OeGCY2YGzfDxdRpGvhzc-24">
          <mxGeometry relative="1" as="geometry">
            <mxPoint x="530" y="775" as="targetPoint" />
          </mxGeometry>
        </mxCell>
        <mxCell id="OeGCY2YGzfDxdRpGvhzc-24" value="tied" style="text;html=1;align=center;verticalAlign=middle;resizable=0;points=[];autosize=1;strokeColor=none;fillColor=none;" vertex="1" parent="1">
          <mxGeometry x="450" y="760" width="40" height="30" as="geometry" />
        </mxCell>
        <mxCell id="OeGCY2YGzfDxdRpGvhzc-26" value="0...*" style="text;html=1;align=center;verticalAlign=middle;resizable=0;points=[];autosize=1;strokeColor=none;fillColor=none;" vertex="1" parent="1">
          <mxGeometry x="1030" y="850" width="40" height="30" as="geometry" />
        </mxCell>
        <mxCell id="OeGCY2YGzfDxdRpGvhzc-27" style="edgeStyle=orthogonalEdgeStyle;rounded=0;orthogonalLoop=1;jettySize=auto;html=1;entryX=0.708;entryY=0.007;entryDx=0;entryDy=0;entryPerimeter=0;endArrow=none;endFill=0;" edge="1" parent="1" source="lYi7P_-lSk1RdSf29L5r-43" target="lYi7P_-lSk1RdSf29L5r-47">
          <mxGeometry relative="1" as="geometry" />
        </mxCell>
        <mxCell id="OeGCY2YGzfDxdRpGvhzc-29" style="edgeStyle=orthogonalEdgeStyle;rounded=0;orthogonalLoop=1;jettySize=auto;html=1;" edge="1" parent="1" source="OeGCY2YGzfDxdRpGvhzc-28">
          <mxGeometry relative="1" as="geometry">
            <mxPoint x="230.00000000000023" y="640" as="targetPoint" />
          </mxGeometry>
        </mxCell>
        <mxCell id="OeGCY2YGzfDxdRpGvhzc-28" value="writes" style="text;html=1;align=center;verticalAlign=middle;resizable=0;points=[];autosize=1;strokeColor=none;fillColor=none;" vertex="1" parent="1">
          <mxGeometry x="205" y="588" width="50" height="30" as="geometry" />
        </mxCell>
        <mxCell id="OeGCY2YGzfDxdRpGvhzc-31" style="edgeStyle=orthogonalEdgeStyle;rounded=0;orthogonalLoop=1;jettySize=auto;html=1;" edge="1" parent="1" source="OeGCY2YGzfDxdRpGvhzc-30">
          <mxGeometry relative="1" as="geometry">
            <mxPoint x="170.00000000000023" y="560" as="targetPoint" />
          </mxGeometry>
        </mxCell>
        <mxCell id="OeGCY2YGzfDxdRpGvhzc-30" value="reviews" style="text;html=1;align=center;verticalAlign=middle;resizable=0;points=[];autosize=1;strokeColor=none;fillColor=none;" vertex="1" parent="1">
          <mxGeometry x="140" y="588" width="60" height="30" as="geometry" />
        </mxCell>
        <mxCell id="OeGCY2YGzfDxdRpGvhzc-32" value="&lt;p style=&quot;margin:0px;margin-top:4px;text-align:center;&quot;&gt;&lt;b&gt;Item&lt;/b&gt;&lt;/p&gt;&lt;hr size=&quot;1&quot; style=&quot;border-style:solid;&quot;&gt;&lt;p style=&quot;margin:0px;margin-left:4px;&quot;&gt;- ItemID&lt;/p&gt;&lt;p style=&quot;margin:0px;margin-left:4px;&quot;&gt;- name&lt;/p&gt;&lt;p style=&quot;margin:0px;margin-left:4px;&quot;&gt;- quantity&lt;/p&gt;&lt;hr size=&quot;1&quot; style=&quot;border-style:solid;&quot;&gt;&lt;p style=&quot;margin:0px;margin-left:4px;&quot;&gt;+ updateQuantity(newQuantity)&lt;/p&gt;&lt;p style=&quot;margin:0px;margin-left:4px;&quot;&gt;+ getItemDetails()&lt;/p&gt;" style="verticalAlign=top;align=left;overflow=fill;html=1;whiteSpace=wrap;" vertex="1" parent="1">
          <mxGeometry x="1060" y="445" width="180" height="115" as="geometry" />
        </mxCell>
        <mxCell id="OeGCY2YGzfDxdRpGvhzc-33" style="edgeStyle=orthogonalEdgeStyle;rounded=0;orthogonalLoop=1;jettySize=auto;html=1;entryX=0.991;entryY=0.574;entryDx=0;entryDy=0;entryPerimeter=0;endArrow=none;endFill=0;" edge="1" parent="1" source="OeGCY2YGzfDxdRpGvhzc-32" target="lYi7P_-lSk1RdSf29L5r-45">
          <mxGeometry relative="1" as="geometry" />
        </mxCell>
        <mxCell id="OeGCY2YGzfDxdRpGvhzc-34" value="1" style="text;html=1;align=center;verticalAlign=middle;resizable=0;points=[];autosize=1;strokeColor=none;fillColor=none;" vertex="1" parent="1">
          <mxGeometry x="865" y="478" width="30" height="30" as="geometry" />
        </mxCell>
        <mxCell id="OeGCY2YGzfDxdRpGvhzc-35" value="1...*" style="text;html=1;align=center;verticalAlign=middle;resizable=0;points=[];autosize=1;strokeColor=none;fillColor=none;" vertex="1" parent="1">
          <mxGeometry x="1020" y="478" width="40" height="30" as="geometry" />
        </mxCell>
        <mxCell id="OeGCY2YGzfDxdRpGvhzc-36" value="1" style="text;html=1;align=center;verticalAlign=middle;resizable=0;points=[];autosize=1;strokeColor=none;fillColor=none;" vertex="1" parent="1">
          <mxGeometry x="1035" y="498" width="30" height="30" as="geometry" />
        </mxCell>
        <mxCell id="OeGCY2YGzfDxdRpGvhzc-37" value="1" style="text;html=1;align=center;verticalAlign=middle;resizable=0;points=[];autosize=1;strokeColor=none;fillColor=none;" vertex="1" parent="1">
          <mxGeometry x="865" y="498" width="30" height="30" as="geometry" />
        </mxCell>
        <mxCell id="OeGCY2YGzfDxdRpGvhzc-39" style="edgeStyle=orthogonalEdgeStyle;rounded=0;orthogonalLoop=1;jettySize=auto;html=1;" edge="1" parent="1" source="OeGCY2YGzfDxdRpGvhzc-38">
          <mxGeometry relative="1" as="geometry">
            <mxPoint x="1000" y="493" as="targetPoint" />
          </mxGeometry>
        </mxCell>
        <mxCell id="OeGCY2YGzfDxdRpGvhzc-38" value="have" style="text;html=1;align=center;verticalAlign=middle;resizable=0;points=[];autosize=1;strokeColor=none;fillColor=none;" vertex="1" parent="1">
          <mxGeometry x="925" y="478" width="50" height="30" as="geometry" />
        </mxCell>
      </root>
    </mxGraphModel>
  </diagram>
</mxfile>
